<svg xmlns="http://www.w3.org/2000/svg" xmlns:xlink="http://www.w3.org/1999/xlink" width="100" zoomAndPan="magnify" viewBox="0 0 75 37.5" height="50" preserveAspectRatio="xMidYMid meet" version="1.0"><defs><g/><clipPath id="83a6142ef1"><path d="M 27.992188 5.503906 L 47.234375 5.503906 L 47.234375 18.828125 L 27.992188 18.828125 Z M 27.992188 5.503906 " clip-rule="nonzero"/></clipPath></defs><g fill="#131319" fill-opacity="1"><g transform="translate(20.305679, 23.98566)"><g><path d="M 1.046875 0 L 0.125 0 L 1.515625 -4.015625 L 2.609375 -4.015625 L 3.984375 0 L 3.078125 0 L 2.78125 -0.921875 L 1.34375 -0.921875 Z M 1.546875 -1.578125 L 2.578125 -1.578125 L 2.078125 -3.09375 L 2.046875 -3.09375 Z M 1.546875 -1.578125 "/></g></g></g><g fill="#131319" fill-opacity="1"><g transform="translate(24.428235, 23.98566)"><g><path d="M 1.765625 0 L 0.34375 0 L 0.34375 -4.015625 L 1.78125 -4.015625 C 2.1875 -4.015625 2.535156 -3.929688 2.828125 -3.765625 C 3.117188 -3.609375 3.34375 -3.378906 3.5 -3.078125 C 3.65625 -2.785156 3.734375 -2.429688 3.734375 -2.015625 C 3.734375 -1.585938 3.65625 -1.222656 3.5 -0.921875 C 3.34375 -0.628906 3.113281 -0.398438 2.8125 -0.234375 C 2.519531 -0.078125 2.171875 0 1.765625 0 Z M 1.203125 -0.734375 L 1.734375 -0.734375 C 2.109375 -0.734375 2.394531 -0.832031 2.59375 -1.03125 C 2.789062 -1.238281 2.890625 -1.566406 2.890625 -2.015625 C 2.890625 -2.453125 2.789062 -2.769531 2.59375 -2.96875 C 2.394531 -3.175781 2.109375 -3.28125 1.734375 -3.28125 L 1.203125 -3.28125 Z M 1.203125 -0.734375 "/></g></g></g><g fill="#131319" fill-opacity="1"><g transform="translate(28.437255, 23.98566)"><g><path d="M 1.078125 -4.015625 L 2.046875 -0.96875 L 2.078125 -0.96875 L 3.046875 -4.015625 L 3.984375 -4.015625 L 2.609375 0 L 1.515625 0 L 0.125 -4.015625 Z M 1.078125 -4.015625 "/></g></g></g><g fill="#131319" fill-opacity="1"><g transform="translate(32.559811, 23.98566)"><g><path d="M 0.34375 0 L 0.34375 -4.015625 L 3.046875 -4.015625 L 3.046875 -3.3125 L 1.203125 -3.3125 L 1.203125 -2.359375 L 2.90625 -2.359375 L 2.90625 -1.65625 L 1.203125 -1.65625 L 1.203125 -0.703125 L 3.0625 -0.703125 L 3.0625 0 Z M 0.34375 0 "/></g></g></g><g fill="#131319" fill-opacity="1"><g transform="translate(35.936551, 23.98566)"><g><path d="M 3.703125 -4.015625 L 3.703125 0 L 2.96875 0 L 1.21875 -2.53125 L 1.203125 -2.53125 L 1.203125 0 L 0.34375 0 L 0.34375 -4.015625 L 1.09375 -4.015625 L 2.828125 -1.484375 L 2.859375 -1.484375 L 2.859375 -4.015625 Z M 3.703125 -4.015625 "/></g></g></g><g fill="#131319" fill-opacity="1"><g transform="translate(39.988637, 23.98566)"><g><path d="M 0.203125 -3.3125 L 0.203125 -4.015625 L 3.484375 -4.015625 L 3.484375 -3.3125 L 2.265625 -3.3125 L 2.265625 0 L 1.421875 0 L 1.421875 -3.3125 Z M 0.203125 -3.3125 "/></g></g></g><g fill="#131319" fill-opacity="1"><g transform="translate(43.672708, 23.98566)"><g><path d="M 2.828125 -4.015625 L 3.671875 -4.015625 L 3.671875 -1.359375 C 3.671875 -1.054688 3.597656 -0.796875 3.453125 -0.578125 C 3.316406 -0.367188 3.125 -0.207031 2.875 -0.09375 C 2.625 0.0078125 2.335938 0.0625 2.015625 0.0625 C 1.691406 0.0625 1.40625 0.0078125 1.15625 -0.09375 C 0.90625 -0.207031 0.707031 -0.367188 0.5625 -0.578125 C 0.414062 -0.796875 0.34375 -1.054688 0.34375 -1.359375 L 0.34375 -4.015625 L 1.203125 -4.015625 L 1.203125 -1.390625 C 1.203125 -1.171875 1.273438 -1 1.421875 -0.875 C 1.578125 -0.757812 1.773438 -0.703125 2.015625 -0.703125 C 2.253906 -0.703125 2.445312 -0.757812 2.59375 -0.875 C 2.75 -1 2.828125 -1.171875 2.828125 -1.390625 Z M 2.828125 -4.015625 "/></g></g></g><g fill="#131319" fill-opacity="1"><g transform="translate(47.693475, 23.98566)"><g><path d="M 0.34375 0 L 0.34375 -4.015625 L 1.9375 -4.015625 C 2.382812 -4.015625 2.734375 -3.894531 2.984375 -3.65625 C 3.242188 -3.414062 3.375 -3.097656 3.375 -2.703125 C 3.375 -2.429688 3.3125 -2.195312 3.1875 -2 C 3.0625 -1.800781 2.882812 -1.65625 2.65625 -1.5625 L 3.515625 0 L 2.578125 0 L 1.8125 -1.421875 L 1.203125 -1.421875 L 1.203125 0 Z M 1.203125 -2.109375 L 1.765625 -2.109375 C 2.253906 -2.109375 2.5 -2.304688 2.5 -2.703125 C 2.5 -3.109375 2.253906 -3.3125 1.765625 -3.3125 L 1.203125 -3.3125 Z M 1.203125 -2.109375 "/></g></g></g><g fill="#131319" fill-opacity="1"><g transform="translate(51.310988, 23.98566)"><g><path d="M 0.34375 0 L 0.34375 -4.015625 L 3.046875 -4.015625 L 3.046875 -3.3125 L 1.203125 -3.3125 L 1.203125 -2.359375 L 2.90625 -2.359375 L 2.90625 -1.65625 L 1.203125 -1.65625 L 1.203125 -0.703125 L 3.0625 -0.703125 L 3.0625 0 Z M 0.34375 0 "/></g></g></g><g clip-path="url(#83a6142ef1)"><path fill="#ff5400" d="M 27.992188 13.292969 C 27.992188 11.175781 29.484375 10.40625 31.472656 9.976562 C 31.847656 7.449219 34.027344 5.511719 36.65625 5.511719 C 38.234375 5.511719 39.648438 6.207031 40.609375 7.308594 C 41.039062 7.167969 41.503906 7.089844 41.980469 7.089844 C 44.421875 7.089844 46.398438 9.066406 46.398438 11.507812 C 46.398438 11.722656 46.382812 11.933594 46.355469 12.140625 C 46.765625 12.800781 47.003906 13.578125 47.003906 14.414062 C 47.003906 16.765625 45.066406 18.738281 42.699219 18.714844 L 39.128906 18.714844 C 36.363281 18.714844 34.679688 16.765625 37.089844 14.636719 L 38.277344 13.585938 L 40.367188 17.773438 L 40.703125 17.496094 C 40.875 17.351562 40.820312 17.054688 40.757812 16.824219 L 40.050781 14.136719 C 40.058594 14.132812 40.066406 14.128906 40.070312 14.121094 L 40.90625 13.285156 C 40.988281 13.207031 40.988281 13.074219 40.90625 12.992188 L 40.585938 12.667969 C 40.503906 12.589844 40.371094 12.589844 40.289062 12.667969 L 39.796875 13.164062 L 39.613281 12.476562 L 41.449219 10.953125 C 41.863281 10.609375 42.082031 9.878906 41.5625 9.339844 C 41.023438 8.820312 40.292969 9.039062 39.949219 9.453125 L 38.425781 11.289062 L 37.738281 11.109375 L 38.234375 10.613281 C 38.316406 10.535156 38.316406 10.398438 38.234375 10.320312 L 37.914062 9.996094 C 37.832031 9.914062 37.699219 9.914062 37.617188 9.996094 L 36.78125 10.832031 C 36.777344 10.835938 36.769531 10.84375 36.765625 10.851562 L 34.078125 10.144531 C 33.847656 10.082031 33.550781 10.027344 33.40625 10.199219 L 33.128906 10.535156 L 37.316406 12.625 L 36.246094 13.835938 C 33.941406 16.441406 27.992188 18.101562 27.992188 13.292969 " fill-opacity="1" fill-rule="evenodd"/></g><g fill="#424247" fill-opacity="1"><g transform="translate(27.7413, 30.086108)"><g><path d="M 0.25 -3.34375 L 0.25 -3.734375 L 3.046875 -3.734375 L 3.046875 -3.34375 L 1.875 -3.34375 L 1.875 0 L 1.421875 0 L 1.421875 -3.34375 Z M 0.25 -3.34375 "/></g></g></g><g fill="#424247" fill-opacity="1"><g transform="translate(31.042776, 30.086108)"><g><path d="M 0.453125 0 L 0.453125 -3.734375 L 1.71875 -3.734375 C 2.007812 -3.734375 2.25 -3.679688 2.4375 -3.578125 C 2.625 -3.484375 2.757812 -3.347656 2.84375 -3.171875 C 2.9375 -3.003906 2.984375 -2.8125 2.984375 -2.59375 C 2.984375 -2.34375 2.925781 -2.125 2.8125 -1.9375 C 2.695312 -1.757812 2.519531 -1.628906 2.28125 -1.546875 L 3.125 0 L 2.609375 0 L 1.8125 -1.46875 C 1.78125 -1.457031 1.75 -1.453125 1.71875 -1.453125 L 0.90625 -1.453125 L 0.90625 0 Z M 0.90625 -1.875 L 1.703125 -1.875 C 2.003906 -1.875 2.21875 -1.9375 2.34375 -2.0625 C 2.476562 -2.1875 2.546875 -2.363281 2.546875 -2.59375 C 2.546875 -2.820312 2.476562 -3.003906 2.34375 -3.140625 C 2.21875 -3.273438 2.003906 -3.34375 1.703125 -3.34375 L 0.90625 -3.34375 Z M 0.90625 -1.875 "/></g></g></g><g fill="#424247" fill-opacity="1"><g transform="translate(34.329645, 30.086108)"><g><path d="M 0.609375 0 L 0.125 0 L 1.5 -3.734375 L 1.96875 -3.734375 L 3.34375 0 L 2.875 0 L 2.5 -1.0625 L 0.984375 -1.0625 Z M 1.125 -1.453125 L 2.34375 -1.453125 L 1.75 -3.140625 L 1.71875 -3.140625 Z M 1.125 -1.453125 "/></g></g></g><g fill="#424247" fill-opacity="1"><g transform="translate(37.806421, 30.086108)"><g><path d="M 0.609375 -3.734375 L 1.71875 -0.59375 L 1.765625 -0.59375 L 2.875 -3.734375 L 3.34375 -3.734375 L 1.96875 0 L 1.5 0 L 0.125 -3.734375 Z M 0.609375 -3.734375 "/></g></g></g><g fill="#424247" fill-opacity="1"><g transform="translate(41.283196, 30.086108)"><g><path d="M 0.453125 0 L 0.453125 -3.734375 L 2.703125 -3.734375 L 2.703125 -3.34375 L 0.90625 -3.34375 L 0.90625 -2.078125 L 2.59375 -2.078125 L 2.59375 -1.671875 L 0.90625 -1.671875 L 0.90625 -0.40625 L 2.734375 -0.40625 L 2.734375 0 Z M 0.453125 0 "/></g></g></g><g fill="#424247" fill-opacity="1"><g transform="translate(44.358244, 30.086108)"><g><path d="M 0.453125 0 L 0.453125 -3.734375 L 0.90625 -3.734375 L 0.90625 -0.40625 L 2.640625 -0.40625 L 2.640625 0 Z M 0.453125 0 "/></g></g></g></svg>