<svg xmlns="http://www.w3.org/2000/svg" xmlns:xlink="http://www.w3.org/1999/xlink" width="500" zoomAndPan="magnify" viewBox="0 0 375 374.999991" height="500" preserveAspectRatio="xMidYMid meet" version="1.0"><defs><clipPath id="191e8623bb"><path d="M 5.066406 60.460938 L 369.566406 60.460938 L 369.566406 314 L 5.066406 314 Z M 5.066406 60.460938 " clip-rule="nonzero"/></clipPath></defs><g clip-path="url(#191e8623bb)"><path fill="#ff5400" d="M 5.050781 209.898438 C 5.050781 169.230469 33.691406 154.488281 71.902344 146.265625 C 79.085938 97.765625 120.886719 60.550781 171.382812 60.550781 C 201.628906 60.550781 228.753906 73.90625 247.191406 95.039062 C 255.492188 92.324219 264.355469 90.847656 273.5625 90.847656 C 320.386719 90.847656 358.34375 128.804688 358.34375 175.625 C 358.34375 179.746094 358.039062 183.796875 357.472656 187.757812 C 365.375 200.417969 369.945312 215.371094 369.945312 231.394531 C 369.945312 276.53125 332.792969 314.382812 287.355469 313.914062 L 218.816406 313.914062 C 165.746094 313.914062 133.4375 276.550781 179.664062 235.707031 L 202.488281 215.542969 L 242.5625 295.90625 L 249.027344 290.53125 C 252.34375 287.773438 251.261719 282.09375 250.066406 277.632812 L 236.519531 226.117188 C 236.65625 226.007812 236.789062 225.894531 236.914062 225.769531 L 252.910156 209.769531 C 254.476562 208.210938 254.472656 205.652344 252.910156 204.085938 L 246.75 197.925781 C 245.183594 196.359375 242.625 196.359375 241.0625 197.925781 L 231.59375 207.390625 L 228.136719 194.234375 L 263.328125 164.996094 C 271.277344 158.386719 275.480469 144.34375 265.527344 134.027344 C 255.203125 124.070312 241.164062 128.273438 234.554688 136.222656 L 205.316406 171.414062 L 192.160156 167.957031 L 201.628906 158.488281 C 203.191406 156.925781 203.191406 154.367188 201.628906 152.804688 L 195.464844 146.640625 C 193.898438 145.078125 191.34375 145.078125 189.78125 146.640625 L 173.78125 162.636719 C 173.65625 162.761719 173.539062 162.894531 173.433594 163.03125 L 121.917969 149.480469 C 117.457031 148.289062 111.777344 147.203125 109.019531 150.523438 L 103.644531 156.992188 L 184.007812 197.066406 L 163.496094 220.28125 C 119.277344 270.320312 5.050781 302.199219 5.050781 209.898438 " fill-opacity="1" fill-rule="evenodd"/></g></svg>